<svg width="21" height="21" viewBox="0 0 21 21" fill="none" xmlns="http://www.w3.org/2000/svg">
<path d="M14.09 9.93H11.41V7.25C11.41 6.87 11.1 6.56 10.72 6.56C10.34 6.56 10.03 6.87 10.03 7.25V9.93H7.34998C6.96998 9.93 6.65997 10.24 6.65997 10.62C6.65997 11 6.96998 11.31 7.34998 11.31H10.03V13.99C10.03 14.37 10.34 14.68 10.72 14.68C11.1 14.68 11.41 14.37 11.41 13.99V11.31H14.09C14.47 11.31 14.78 11 14.78 10.62C14.78 10.24 14.47 9.93 14.09 9.93Z" fill="#343434"/>
<path d="M10.67 0.770004C5.18998 0.770004 0.75 5.21 0.75 10.69C0.75 16.17 5.18998 20.61 10.67 20.61C16.15 20.61 20.59 16.17 20.59 10.69C20.6 5.21 16.15 0.770004 10.67 0.770004ZM15.9 13.88C15.9 14.97 15.01 15.86 13.92 15.86H7.53998C6.44998 15.86 5.56 14.97 5.56 13.88V7.5C5.56 6.41 6.44998 5.52 7.53998 5.52H13.92C15.01 5.52 15.9 6.41 15.9 7.5V13.88Z" fill="#3C3C3B"/>
</svg>
