<svg width="67" height="23" viewBox="0 0 67 23" fill="none" xmlns="http://www.w3.org/2000/svg">
<path d="M12.11 10.21C12.11 10.69 12.03 11.13 11.86 11.53C11.7 11.94 11.47 12.29 11.17 12.59C10.88 12.89 10.53 13.12 10.12 13.29C9.71 13.46 9.26 13.54 8.76 13.54C8.16 13.54 7.64 13.41 7.19 13.16C6.74 12.91 6.39 12.55 6.13 12.1C5.87 12.55 5.52 12.91 5.08 13.16C4.64 13.41 4.12 13.54 3.52 13.54C3.02 13.54 2.57 13.46 2.16 13.29C1.75 13.12 1.4 12.89 1.11 12.59C0.820001 12.29 0.589998 11.94 0.419998 11.53C0.259998 11.12 0.169998 10.68 0.169998 10.21V4.61H1.61V10.21C1.61 10.78 1.78 11.24 2.13 11.61C2.47 11.98 2.94 12.16 3.51 12.16C4.09 12.16 4.55 11.98 4.89 11.61C5.24 11.24 5.41 10.78 5.41 10.21V4.61H6.85V10.21C6.85 10.78 7.02 11.24 7.37 11.61C7.71 11.98 8.18 12.16 8.75 12.16C9.33 12.16 9.79 11.98 10.13 11.61C10.48 11.24 10.65 10.78 10.65 10.21V4.61H12.09V10.21H12.11Z" fill="white"/>
<path d="M22.47 10.63C22.13 11.57 21.61 12.29 20.9 12.79C20.19 13.29 19.33 13.54 18.31 13.54C17.68 13.54 17.09 13.42 16.55 13.18C16.01 12.94 15.53 12.62 15.13 12.21C14.73 11.8 14.41 11.32 14.18 10.77C13.95 10.22 13.83 9.62001 13.83 8.97001C13.83 8.34001 13.95 7.74001 14.18 7.18001C14.41 6.62001 14.73 6.13001 15.12 5.72001C15.52 5.31001 15.98 4.98001 16.51 4.74001C17.04 4.50001 17.61 4.38 18.22 4.38C18.7 4.38 19.16 4.46 19.61 4.63C20.06 4.79 20.48 5.03001 20.87 5.33001C21.25 5.64001 21.59 6.01 21.87 6.46C22.15 6.91 22.36 7.41001 22.48 7.98001L15.78 10.81C16.06 11.25 16.43 11.59 16.87 11.83C17.32 12.07 17.79 12.19 18.3 12.19C18.92 12.19 19.45 12.06 19.89 11.79C20.33 11.52 20.68 11.14 20.97 10.63H22.47ZM15.28 8.97001C15.28 9.18001 15.3 9.38001 15.33 9.56001L20.72 7.29001C20.45 6.81001 20.09 6.44001 19.64 6.16001C19.19 5.88001 18.72 5.74001 18.22 5.74001C17.87 5.74001 17.52 5.81 17.17 5.96C16.82 6.11 16.5 6.32001 16.22 6.60001C15.94 6.88001 15.71 7.22001 15.53 7.62001C15.37 8.02001 15.28 8.47001 15.28 8.97001Z" fill="white"/>
<path d="M60.69 10.63C60.35 11.57 59.83 12.29 59.12 12.79C58.41 13.29 57.55 13.54 56.53 13.54C55.9 13.54 55.31 13.42 54.77 13.18C54.23 12.94 53.75 12.62 53.35 12.21C52.95 11.8 52.63 11.32 52.4 10.77C52.17 10.22 52.05 9.62001 52.05 8.97001C52.05 8.34001 52.17 7.74001 52.4 7.18001C52.63 6.62001 52.95 6.13001 53.34 5.72001C53.74 5.31001 54.2 4.98001 54.73 4.74001C55.26 4.50001 55.83 4.38 56.44 4.38C56.92 4.38 57.38 4.46 57.83 4.63C58.28 4.79 58.7 5.03001 59.09 5.33001C59.47 5.64001 59.81 6.01 60.09 6.46C60.37 6.91 60.58 7.41001 60.7 7.98001L54 10.81C54.28 11.25 54.65 11.59 55.09 11.83C55.54 12.07 56.01 12.19 56.52 12.19C57.14 12.19 57.67 12.06 58.11 11.79C58.55 11.52 58.9 11.14 59.19 10.63H60.69ZM53.5 8.97001C53.5 9.18001 53.52 9.38001 53.55 9.56001L58.94 7.29001C58.67 6.81001 58.31 6.44001 57.86 6.16001C57.41 5.88001 56.94 5.74001 56.44 5.74001C56.09 5.74001 55.74 5.81 55.39 5.96C55.04 6.11 54.72 6.32001 54.44 6.60001C54.16 6.88001 53.93 7.22001 53.75 7.62001C53.59 8.02001 53.5 8.47001 53.5 8.97001Z" fill="white"/>
<path d="M62.44 8.15001C62.44 7.49001 62.55 6.92001 62.77 6.42001C62.99 5.92001 63.29 5.52001 63.67 5.20001C64.05 4.88001 64.49 4.66001 64.99 4.53001C65.49 4.40001 66.03 4.37001 66.61 4.44001V5.78001C65.77 5.70001 65.1 5.86001 64.61 6.26001C64.12 6.66001 63.88 7.28001 63.88 8.13001V13.36H62.44V8.15001Z" fill="white"/>
<path d="M25.81 5.95V13.26H24.37V4.22C24.37 2.93 24.71 1.99 25.38 1.39C25.99 0.839999 26.81 0.619999 27.82 0.729999V2.03C27.17 1.99 26.67 2.11 26.35 2.42C26.12 2.62 25.98 2.9 25.91 3.25C25.84 3.6 25.81 3.92 25.81 4.22V4.56H30.67V13.26H29.23V5.95H25.81ZM29.23 3.22V2.14C29.23 1.95 29.3 1.78 29.44 1.65C29.58 1.51 29.75 1.45 29.95 1.45C30.16 1.45 30.33 1.52 30.46 1.65C30.6 1.79 30.67 1.95 30.67 2.14V3.22H29.23Z" fill="white"/>
<path d="M34.48 13.26H33.04V7.96001C33.04 7.41001 33.13 6.91001 33.32 6.46001C33.51 6.01001 33.76 5.63001 34.08 5.32001C34.4 5.00001 34.79 4.76001 35.23 4.58001C35.68 4.41001 36.16 4.32001 36.68 4.32001C37.2 4.32001 37.68 4.41001 38.13 4.58001C38.58 4.76001 38.96 5.00001 39.28 5.32001C39.6 5.64001 39.85 6.02001 40.03 6.46001C40.21 6.91001 40.3 7.41001 40.3 7.96001V13.26H38.86V7.91001C38.86 7.26001 38.66 6.72001 38.27 6.29001C37.88 5.87001 37.35 5.66001 36.67 5.66001C36 5.66001 35.46 5.87001 35.06 6.29001C34.66 6.71001 34.46 7.25001 34.46 7.91001V13.26H34.48Z" fill="white"/>
<path d="M50.77 8.88C50.77 9.52 50.66 10.12 50.43 10.68C50.2 11.24 49.9 11.72 49.51 12.14C49.12 12.55 48.66 12.88 48.13 13.11C47.6 13.35 47.02 13.47 46.4 13.47C45.79 13.47 45.22 13.35 44.69 13.12C44.16 12.89 43.7 12.57 43.3 12.15C42.9 11.74 42.59 11.25 42.36 10.69C42.13 10.13 42.01 9.52 42.01 8.87C42.01 8.22 42.12 7.61 42.35 7.06C42.58 6.51 42.89 6.03 43.28 5.62C43.68 5.21 44.14 4.89 44.67 4.66C45.2 4.43 45.76 4.31 46.36 4.31C46.97 4.31 47.53 4.44 48.05 4.71C48.57 4.98 49.01 5.33 49.37 5.79V0.660004H50.76V8.88H50.77ZM49.35 8.88C49.35 8.43 49.27 8.01 49.11 7.62C48.95 7.23 48.74 6.89 48.48 6.6C48.21 6.31 47.9 6.08 47.55 5.91C47.19 5.74 46.81 5.66 46.41 5.66C46.01 5.66 45.62 5.74 45.27 5.91C44.91 6.08 44.6 6.31 44.33 6.6C44.06 6.89 43.85 7.23 43.69 7.62C43.54 8.02 43.46 8.44 43.46 8.89C43.46 9.35 43.54 9.78 43.69 10.18C43.84 10.58 44.05 10.92 44.33 11.21C44.6 11.5 44.91 11.73 45.27 11.9C45.63 12.07 46.01 12.15 46.41 12.15C46.81 12.15 47.18 12.07 47.54 11.9C47.9 11.73 48.21 11.5 48.48 11.2C48.75 10.9 48.97 10.55 49.12 10.16C49.27 9.75 49.35 9.33 49.35 8.88Z" fill="white"/>
<path d="M1.37 19.81H3.33V20.28H1.37V20.88C1.37 21.12 1.43 21.31 1.56 21.44C1.69 21.57 1.87 21.64 2.11 21.64H3.59V22.13H2.11C1.73 22.13 1.42 22.02 1.2 21.8C0.970001 21.58 0.860001 21.27 0.860001 20.88V19.21C0.860001 18.81 0.970001 18.5 1.2 18.28C1.43 18.06 1.73 17.95 2.11 17.95H3.59V18.44H2.11C1.87 18.44 1.69 18.51 1.56 18.64C1.43 18.77 1.37 18.96 1.37 19.21V19.81Z" fill="white"/>
<path d="M7.8 18.47C7.39 18.47 7.1 18.55 6.93 18.71C6.86 18.77 6.8 18.84 6.75 18.91C6.7 18.98 6.65 19.07 6.61 19.17C6.57 19.27 6.55 19.39 6.53 19.54C6.51 19.68 6.5 19.85 6.5 20.05C6.5 20.27 6.49 20.47 6.47 20.64C6.45 20.81 6.41 20.97 6.36 21.11C6.31 21.25 6.25 21.38 6.17 21.49C6.09 21.6 6 21.7 5.88 21.79C5.7 21.94 5.5 22.04 5.28 22.09C5.06 22.14 4.86 22.16 4.66 22.15V21.65C4.86 21.65 5.04 21.63 5.18 21.59C5.32 21.55 5.44 21.49 5.54 21.41C5.61 21.35 5.67 21.29 5.72 21.22C5.77 21.15 5.82 21.06 5.86 20.96C5.9 20.86 5.93 20.73 5.95 20.59C5.97 20.44 5.98 20.27 5.98 20.06C5.98 19.66 6.02 19.33 6.11 19.07C6.19 18.81 6.32 18.6 6.5 18.43C6.66 18.27 6.85 18.15 7.06 18.08C7.27 18.01 7.51 17.98 7.79 17.99V18.47H7.8Z" fill="white"/>
<path d="M11.92 19.22C11.92 19.43 11.89 19.62 11.82 19.79C11.75 19.96 11.66 20.1 11.53 20.22C11.41 20.34 11.25 20.43 11.08 20.5C10.9 20.56 10.7 20.6 10.48 20.6H9.5V22.15H9V19.34C9 19.13 9.04 18.93 9.11 18.75C9.18 18.57 9.28 18.41 9.41 18.28C9.54 18.15 9.7 18.05 9.87 17.97C10.05 17.9 10.24 17.86 10.46 17.86C10.66 17.86 10.85 17.9 11.03 17.97C11.21 18.04 11.36 18.14 11.49 18.26C11.62 18.38 11.73 18.53 11.8 18.69C11.88 18.85 11.92 19.03 11.92 19.22ZM11.41 19.22C11.41 19.1 11.39 18.99 11.34 18.88C11.29 18.78 11.23 18.68 11.14 18.61C11.06 18.53 10.96 18.47 10.84 18.42C10.72 18.37 10.6 18.35 10.46 18.35C10.32 18.35 10.2 18.37 10.08 18.42C9.96 18.47 9.86 18.53 9.78 18.62C9.7 18.71 9.63 18.81 9.58 18.93C9.53 19.05 9.51 19.19 9.51 19.34V20.09H10.48C10.79 20.09 11.02 20.01 11.17 19.85C11.33 19.69 11.41 19.48 11.41 19.22Z" fill="white"/>
<path d="M16.28 22.14H15.77V20.59H13.84V22.14H13.33V19.33C13.33 19.12 13.37 18.93 13.44 18.75C13.51 18.57 13.62 18.42 13.75 18.28C13.88 18.15 14.04 18.04 14.22 17.97C14.4 17.9 14.6 17.86 14.81 17.86C15.02 17.86 15.22 17.9 15.4 17.97C15.58 18.04 15.74 18.15 15.87 18.28C16 18.41 16.1 18.57 16.18 18.75C16.25 18.93 16.29 19.12 16.29 19.33V22.14H16.28ZM15.77 19.34C15.77 19.2 15.75 19.08 15.7 18.96C15.65 18.84 15.59 18.74 15.5 18.65C15.42 18.56 15.31 18.49 15.2 18.44C15.08 18.39 14.95 18.36 14.81 18.36C14.67 18.36 14.55 18.39 14.43 18.44C14.31 18.49 14.21 18.56 14.12 18.65C14.03 18.74 13.97 18.84 13.92 18.96C13.87 19.08 13.85 19.21 13.85 19.34V20.1H15.78V19.34H15.77Z" fill="white"/>
<path d="M21.68 20.82C21.61 21.03 21.51 21.22 21.38 21.4C21.26 21.57 21.11 21.72 20.95 21.84C20.79 21.96 20.6 22.05 20.4 22.12C20.2 22.19 19.99 22.22 19.76 22.22C19.47 22.22 19.21 22.16 18.95 22.05C18.7 21.94 18.48 21.78 18.29 21.58C18.1 21.38 17.95 21.15 17.84 20.89C17.73 20.62 17.68 20.34 17.68 20.04C17.68 19.74 17.73 19.46 17.84 19.19C17.95 18.93 18.1 18.7 18.29 18.5C18.48 18.3 18.7 18.15 18.95 18.03C19.2 17.92 19.47 17.86 19.76 17.86C20 17.86 20.22 17.89 20.42 17.96C20.62 18.03 20.81 18.12 20.97 18.25C21.13 18.37 21.27 18.52 21.39 18.69C21.51 18.86 21.6 19.05 21.67 19.25H21.13C21.01 18.99 20.84 18.77 20.61 18.6C20.38 18.43 20.09 18.35 19.75 18.35C19.53 18.35 19.33 18.39 19.14 18.48C18.95 18.57 18.79 18.69 18.64 18.84C18.5 18.99 18.38 19.17 18.3 19.38C18.22 19.58 18.18 19.8 18.18 20.03C18.18 20.26 18.22 20.47 18.3 20.68C18.38 20.88 18.49 21.06 18.64 21.22C18.78 21.37 18.95 21.5 19.14 21.58C19.33 21.67 19.53 21.71 19.75 21.71C20.06 21.71 20.33 21.63 20.58 21.47C20.82 21.31 21.01 21.09 21.13 20.81H21.68V20.82Z" fill="white"/>
<path d="M23.57 22.14H23.06V17.97H23.57V22.14Z" fill="white"/>
<path d="M27.12 17.86C27.41 17.86 27.68 17.92 27.93 18.03C28.18 18.14 28.4 18.29 28.59 18.49C28.78 18.68 28.92 18.91 29.03 19.18C29.14 19.44 29.19 19.73 29.19 20.04C29.19 20.35 29.14 20.63 29.03 20.9C28.92 21.17 28.77 21.4 28.59 21.59C28.4 21.79 28.18 21.94 27.93 22.05C27.68 22.16 27.41 22.22 27.12 22.22C26.83 22.22 26.57 22.16 26.31 22.05C26.06 21.94 25.84 21.78 25.65 21.59C25.46 21.39 25.32 21.16 25.21 20.9C25.1 20.64 25.05 20.35 25.05 20.04C25.05 19.73 25.1 19.45 25.21 19.19C25.32 18.93 25.47 18.7 25.65 18.5C25.84 18.3 26.06 18.15 26.31 18.04C26.56 17.92 26.83 17.86 27.12 17.86ZM27.12 21.72C27.34 21.72 27.54 21.68 27.73 21.59C27.92 21.5 28.08 21.38 28.23 21.23C28.37 21.08 28.48 20.9 28.57 20.69C28.65 20.49 28.69 20.27 28.69 20.03C28.69 19.79 28.65 19.57 28.57 19.36C28.49 19.16 28.38 18.98 28.24 18.83C28.1 18.68 27.93 18.56 27.74 18.48C27.55 18.39 27.35 18.35 27.12 18.35C26.9 18.35 26.7 18.39 26.51 18.48C26.32 18.57 26.16 18.69 26.01 18.84C25.87 18.99 25.76 19.17 25.67 19.38C25.59 19.58 25.55 19.8 25.55 20.04C25.55 20.28 25.59 20.5 25.67 20.7C25.75 20.91 25.86 21.08 26.01 21.24C26.15 21.39 26.32 21.51 26.51 21.59C26.7 21.68 26.9 21.72 27.12 21.72Z" fill="white"/>
<path d="M36.86 20.82C36.79 21.03 36.69 21.22 36.56 21.4C36.44 21.57 36.29 21.72 36.13 21.84C35.97 21.96 35.78 22.05 35.58 22.12C35.38 22.19 35.17 22.22 34.94 22.22C34.65 22.22 34.39 22.16 34.13 22.05C33.88 21.94 33.66 21.78 33.47 21.58C33.28 21.38 33.13 21.15 33.02 20.89C32.91 20.62 32.86 20.34 32.86 20.04C32.86 19.74 32.91 19.46 33.02 19.19C33.13 18.93 33.28 18.7 33.47 18.5C33.66 18.3 33.88 18.15 34.13 18.03C34.38 17.92 34.65 17.86 34.94 17.86C35.18 17.86 35.4 17.89 35.6 17.96C35.8 18.03 35.99 18.12 36.15 18.25C36.31 18.37 36.45 18.52 36.57 18.69C36.69 18.86 36.78 19.05 36.85 19.25H36.31C36.19 18.99 36.02 18.77 35.79 18.6C35.56 18.43 35.27 18.35 34.93 18.35C34.71 18.35 34.51 18.39 34.32 18.48C34.13 18.57 33.97 18.69 33.82 18.84C33.68 18.99 33.56 19.17 33.48 19.38C33.4 19.58 33.36 19.8 33.36 20.03C33.36 20.26 33.4 20.47 33.48 20.68C33.56 20.88 33.67 21.06 33.82 21.22C33.96 21.37 34.13 21.5 34.32 21.58C34.51 21.67 34.71 21.71 34.93 21.71C35.24 21.71 35.51 21.63 35.76 21.47C36 21.31 36.19 21.09 36.31 20.81H36.86V20.82Z" fill="white"/>
<path d="M40.04 17.86C40.33 17.86 40.6 17.92 40.85 18.03C41.1 18.14 41.32 18.29 41.51 18.49C41.7 18.68 41.84 18.91 41.95 19.18C42.06 19.44 42.11 19.73 42.11 20.04C42.11 20.35 42.06 20.63 41.95 20.9C41.84 21.17 41.69 21.4 41.51 21.59C41.32 21.79 41.1 21.94 40.85 22.05C40.6 22.16 40.33 22.22 40.04 22.22C39.75 22.22 39.49 22.16 39.23 22.05C38.98 21.94 38.76 21.78 38.57 21.59C38.38 21.39 38.24 21.16 38.13 20.9C38.02 20.64 37.97 20.35 37.97 20.04C37.97 19.73 38.02 19.45 38.13 19.19C38.24 18.93 38.39 18.7 38.57 18.5C38.76 18.3 38.98 18.15 39.23 18.04C39.48 17.92 39.75 17.86 40.04 17.86ZM40.04 21.72C40.26 21.72 40.46 21.68 40.65 21.59C40.84 21.5 41 21.38 41.15 21.23C41.29 21.08 41.4 20.9 41.49 20.69C41.57 20.49 41.61 20.27 41.61 20.03C41.61 19.79 41.57 19.57 41.49 19.36C41.41 19.15 41.3 18.98 41.16 18.83C41.02 18.68 40.85 18.56 40.66 18.48C40.47 18.39 40.27 18.35 40.04 18.35C39.82 18.35 39.62 18.39 39.43 18.48C39.24 18.57 39.08 18.69 38.93 18.84C38.79 18.99 38.68 19.17 38.59 19.38C38.51 19.58 38.47 19.8 38.47 20.04C38.47 20.28 38.51 20.5 38.59 20.7C38.67 20.91 38.78 21.08 38.93 21.24C39.07 21.39 39.24 21.51 39.43 21.59C39.62 21.68 39.82 21.72 40.04 21.72Z" fill="white"/>
<path d="M44.99 17.86C45.2 17.86 45.39 17.9 45.57 17.97C45.75 18.04 45.9 18.15 46.04 18.28C46.17 18.41 46.28 18.56 46.35 18.74C46.43 18.92 46.46 19.11 46.46 19.32V22.14H45.95V19.33C45.95 19.19 45.92 19.07 45.87 18.95C45.82 18.83 45.75 18.73 45.66 18.64C45.57 18.55 45.47 18.49 45.35 18.44C45.23 18.39 45.11 18.36 44.98 18.36C44.85 18.36 44.72 18.39 44.61 18.44C44.49 18.49 44.39 18.56 44.3 18.64C44.21 18.73 44.14 18.83 44.09 18.95C44.04 19.07 44.01 19.2 44.01 19.33V22.14H43.5V19.32C43.5 19.11 43.54 18.92 43.61 18.74C43.68 18.56 43.79 18.41 43.92 18.28C44.05 18.15 44.21 18.05 44.39 17.97C44.59 17.9 44.78 17.86 44.99 17.86Z" fill="white"/>
<path d="M48.53 19.81H50.49V20.28H48.53V20.88C48.53 21.12 48.59 21.31 48.72 21.44C48.85 21.57 49.03 21.64 49.27 21.64H50.75V22.13H49.27C48.89 22.13 48.58 22.02 48.36 21.8C48.13 21.58 48.02 21.27 48.02 20.88V19.21C48.02 18.81 48.13 18.5 48.36 18.28C48.59 18.06 48.89 17.95 49.27 17.95H50.75V18.44H49.27C49.03 18.44 48.85 18.51 48.72 18.64C48.59 18.77 48.53 18.96 48.53 19.21V19.81Z" fill="white"/>
<path d="M56.03 20.82C55.96 21.03 55.86 21.22 55.73 21.4C55.61 21.57 55.46 21.72 55.3 21.84C55.14 21.96 54.95 22.05 54.75 22.12C54.55 22.19 54.34 22.22 54.11 22.22C53.82 22.22 53.56 22.16 53.3 22.05C53.05 21.94 52.83 21.78 52.64 21.58C52.45 21.38 52.3 21.15 52.19 20.89C52.08 20.62 52.03 20.34 52.03 20.04C52.03 19.74 52.08 19.46 52.19 19.19C52.3 18.93 52.45 18.7 52.64 18.5C52.83 18.3 53.05 18.15 53.3 18.03C53.55 17.92 53.82 17.86 54.11 17.86C54.35 17.86 54.57 17.89 54.77 17.96C54.97 18.03 55.16 18.12 55.32 18.25C55.48 18.37 55.62 18.52 55.74 18.69C55.86 18.86 55.95 19.05 56.02 19.25H55.48C55.36 18.99 55.19 18.77 54.96 18.6C54.73 18.43 54.44 18.35 54.1 18.35C53.88 18.35 53.68 18.39 53.49 18.48C53.3 18.57 53.14 18.69 52.99 18.84C52.85 18.99 52.73 19.17 52.65 19.38C52.57 19.58 52.53 19.8 52.53 20.03C52.53 20.26 52.57 20.47 52.65 20.68C52.73 20.88 52.84 21.06 52.99 21.22C53.13 21.37 53.3 21.5 53.49 21.58C53.68 21.67 53.88 21.71 54.1 21.71C54.41 21.71 54.68 21.63 54.93 21.47C55.17 21.31 55.36 21.09 55.48 20.81H56.03V20.82Z" fill="white"/>
<path d="M58.82 18.45V22.14H58.31V18.45H57V17.96H60.14V18.45H58.82Z" fill="white"/>
<path d="M64.35 22.14H63.84V20.59H61.91V22.14H61.4V19.33C61.4 19.12 61.44 18.93 61.51 18.75C61.58 18.57 61.69 18.42 61.82 18.28C61.95 18.15 62.11 18.04 62.29 17.97C62.47 17.9 62.67 17.86 62.88 17.86C63.09 17.86 63.29 17.9 63.47 17.97C63.65 18.05 63.81 18.15 63.94 18.28C64.07 18.41 64.17 18.57 64.25 18.75C64.32 18.93 64.36 19.12 64.36 19.33V22.14H64.35ZM63.84 19.34C63.84 19.2 63.82 19.08 63.77 18.96C63.72 18.84 63.66 18.74 63.57 18.65C63.49 18.56 63.38 18.49 63.27 18.44C63.15 18.39 63.02 18.36 62.88 18.36C62.74 18.36 62.62 18.39 62.5 18.44C62.38 18.49 62.28 18.56 62.19 18.65C62.1 18.74 62.04 18.84 61.99 18.96C61.94 19.08 61.92 19.21 61.92 19.34V20.1H63.85V19.34H63.84Z" fill="white"/>
</svg>
