<svg width="13" height="11" viewBox="0 0 13 11" fill="none" xmlns="http://www.w3.org/2000/svg">
<path d="M11.53 1.23999H10.45V1.87999C10.45 2.31999 10.11 2.67999 9.66998 2.67999C9.22998 2.67999 8.89001 2.31999 8.89001 1.87999V1.23999H4.39001V1.87999C4.39001 2.31999 4.04999 2.67999 3.60999 2.67999C3.16999 2.67999 2.83002 2.31999 2.83002 1.87999V1.23999H1.76001C1.14001 1.23999 0.640015 1.67999 0.640015 2.29999V9.37999C0.640015 9.99999 1.14001 10.55 1.76001 10.55H11.53C12.15 10.55 12.64 9.99999 12.64 9.37999V2.29999C12.64 1.67999 12.15 1.23999 11.53 1.23999ZM11.71 9.48999H1.58002V4.44999H11.71V9.48999Z" fill="white"/>
<path d="M3.59998 2.43C3.25998 2.43 2.98999 2.15 2.98999 1.82V0.669998C2.98999 0.329998 3.26998 0.0599976 3.59998 0.0599976C3.93998 0.0599976 4.21002 0.339998 4.21002 0.669998V1.82C4.21002 2.15 3.92998 2.43 3.59998 2.43Z" fill="white"/>
<path d="M9.66998 2.43C9.32998 2.43 9.06 2.15 9.06 1.82V0.669998C9.06 0.329998 9.33998 0.0599976 9.66998 0.0599976C10.01 0.0599976 10.28 0.339998 10.28 0.669998V1.82C10.28 2.15 10.01 2.43 9.66998 2.43Z" fill="white"/>
<path d="M3.84998 8.75999V8.24999L4.31 7.82999C5.09 7.12999 5.46998 6.72999 5.47998 6.30999C5.47998 6.01999 5.30001 5.79 4.89001 5.79C4.58001 5.79 4.31 5.93999 4.13 6.08999L3.89001 5.48999C4.16001 5.28999 4.58 5.12 5.06 5.12C5.87 5.12 6.31 5.58999 6.31 6.23999C6.31 6.83999 5.87999 7.31999 5.35999 7.77999L5.03003 8.04999V8.05999H6.38V8.74999H3.84998V8.75999Z" fill="white"/>
<path d="M9.28998 5.87H7.90997L7.83002 6.42C7.91002 6.41 7.97 6.41 8.06 6.41C8.4 6.41 8.75 6.49 9 6.67C9.27 6.85 9.42999 7.15 9.42999 7.57C9.42999 8.23 8.86002 8.82 7.90002 8.82C7.47002 8.82 7.09997 8.72 6.90997 8.62L7.06 7.99C7.22 8.07 7.54 8.17 7.87 8.17C8.22 8.17 8.58002 8.01 8.58002 7.63C8.58002 7.26 8.29001 7.04 7.57001 7.04C7.37001 7.04 7.23003 7.05 7.09003 7.07L7.33002 5.2H9.29999V5.87H9.28998Z" fill="white"/>
</svg>
