<svg width="106" height="33" viewBox="0 0 106 33" fill="none" xmlns="http://www.w3.org/2000/svg">
<path d="M51.11 14.21C51.11 14.69 51.03 15.13 50.86 15.53C50.7 15.94 50.47 16.29 50.17 16.59C49.88 16.89 49.53 17.12 49.12 17.29C48.71 17.46 48.26 17.54 47.76 17.54C47.16 17.54 46.64 17.41 46.19 17.16C45.74 16.91 45.39 16.55 45.13 16.1C44.87 16.55 44.52 16.91 44.08 17.16C43.64 17.41 43.12 17.54 42.52 17.54C42.02 17.54 41.57 17.46 41.16 17.29C40.75 17.12 40.4 16.89 40.11 16.59C39.82 16.29 39.59 15.94 39.42 15.53C39.26 15.12 39.17 14.68 39.17 14.21V8.61H40.61V14.21C40.61 14.78 40.78 15.24 41.13 15.61C41.47 15.98 41.94 16.16 42.51 16.16C43.09 16.16 43.55 15.98 43.89 15.61C44.24 15.24 44.41 14.78 44.41 14.21V8.61H45.85V14.21C45.85 14.78 46.02 15.24 46.37 15.61C46.71 15.98 47.18 16.16 47.75 16.16C48.33 16.16 48.79 15.98 49.13 15.61C49.48 15.24 49.65 14.78 49.65 14.21V8.61H51.09V14.21H51.11Z" fill="white"/>
<path d="M61.47 14.63C61.13 15.57 60.61 16.29 59.9 16.79C59.19 17.29 58.33 17.54 57.31 17.54C56.68 17.54 56.09 17.42 55.55 17.18C55.01 16.94 54.53 16.62 54.13 16.21C53.73 15.8 53.41 15.32 53.18 14.77C52.95 14.22 52.83 13.62 52.83 12.97C52.83 12.34 52.95 11.74 53.18 11.18C53.41 10.62 53.73 10.13 54.12 9.72001C54.52 9.31001 54.98 8.98001 55.51 8.74001C56.04 8.50001 56.61 8.38 57.22 8.38C57.7 8.38 58.16 8.46 58.61 8.63C59.06 8.79 59.48 9.03001 59.87 9.33001C60.25 9.64001 60.59 10.01 60.87 10.46C61.15 10.91 61.36 11.41 61.48 11.98L54.78 14.81C55.06 15.25 55.43 15.59 55.87 15.83C56.32 16.07 56.79 16.19 57.3 16.19C57.92 16.19 58.45 16.06 58.89 15.79C59.33 15.52 59.68 15.14 59.97 14.63H61.47ZM54.28 12.97C54.28 13.18 54.3 13.38 54.33 13.56L59.72 11.29C59.45 10.81 59.09 10.44 58.64 10.16C58.19 9.88001 57.72 9.74001 57.22 9.74001C56.87 9.74001 56.52 9.81 56.17 9.96C55.82 10.11 55.5 10.32 55.22 10.6C54.94 10.88 54.71 11.22 54.53 11.62C54.37 12.02 54.28 12.47 54.28 12.97Z" fill="white"/>
<path d="M99.69 14.63C99.35 15.57 98.83 16.29 98.12 16.79C97.41 17.29 96.55 17.54 95.53 17.54C94.9 17.54 94.31 17.42 93.77 17.18C93.23 16.94 92.75 16.62 92.35 16.21C91.95 15.8 91.63 15.32 91.4 14.77C91.17 14.22 91.05 13.62 91.05 12.97C91.05 12.34 91.17 11.74 91.4 11.18C91.63 10.62 91.95 10.13 92.34 9.72001C92.74 9.31001 93.2 8.98001 93.73 8.74001C94.26 8.50001 94.83 8.38 95.44 8.38C95.92 8.38 96.38 8.46 96.83 8.63C97.28 8.79 97.7 9.03001 98.09 9.33001C98.47 9.64001 98.81 10.01 99.09 10.46C99.37 10.91 99.58 11.41 99.7 11.98L93 14.81C93.28 15.25 93.65 15.59 94.09 15.83C94.54 16.07 95.01 16.19 95.52 16.19C96.14 16.19 96.67 16.06 97.11 15.79C97.55 15.52 97.9 15.14 98.19 14.63H99.69ZM92.5 12.97C92.5 13.18 92.52 13.38 92.55 13.56L97.94 11.29C97.67 10.81 97.31 10.44 96.86 10.16C96.41 9.88001 95.94 9.74001 95.44 9.74001C95.09 9.74001 94.74 9.81 94.39 9.96C94.04 10.11 93.72 10.32 93.44 10.6C93.16 10.88 92.93 11.22 92.75 11.62C92.59 12.02 92.5 12.47 92.5 12.97Z" fill="white"/>
<path d="M101.44 12.15C101.44 11.49 101.55 10.92 101.77 10.42C101.99 9.92001 102.29 9.52001 102.67 9.20001C103.05 8.88001 103.49 8.66001 103.99 8.53001C104.49 8.40001 105.03 8.37001 105.61 8.44001V9.78001C104.77 9.70001 104.1 9.86001 103.61 10.26C103.12 10.66 102.88 11.28 102.88 12.13V17.36H101.44V12.15Z" fill="white"/>
<path d="M64.81 9.95V17.26H63.37V8.22C63.37 6.93 63.71 5.99 64.38 5.39C64.99 4.84 65.81 4.62 66.82 4.73V6.03C66.17 5.99 65.67 6.11 65.35 6.42C65.12 6.62 64.98 6.9 64.91 7.25C64.84 7.6 64.81 7.92 64.81 8.22V8.56H69.67V17.26H68.23V9.95H64.81ZM68.23 7.22V6.14C68.23 5.95 68.3 5.78 68.44 5.65C68.58 5.51 68.75 5.45 68.95 5.45C69.16 5.45 69.33 5.52 69.46 5.65C69.6 5.79 69.67 5.95 69.67 6.14V7.22H68.23Z" fill="white"/>
<path d="M73.48 17.26H72.04V11.96C72.04 11.41 72.13 10.91 72.32 10.46C72.51 10.01 72.76 9.63001 73.08 9.32001C73.4 9.00001 73.79 8.76001 74.23 8.58001C74.68 8.41001 75.16 8.32001 75.68 8.32001C76.2 8.32001 76.68 8.41001 77.13 8.58001C77.58 8.76001 77.96 9.00001 78.28 9.32001C78.6 9.64001 78.85 10.02 79.03 10.46C79.21 10.91 79.3 11.41 79.3 11.96V17.26H77.86V11.91C77.86 11.26 77.66 10.72 77.27 10.29C76.88 9.87001 76.35 9.66001 75.67 9.66001C75 9.66001 74.46 9.87001 74.06 10.29C73.66 10.71 73.46 11.25 73.46 11.91V17.26H73.48Z" fill="white"/>
<path d="M89.77 12.88C89.77 13.52 89.66 14.12 89.43 14.68C89.2 15.24 88.9 15.72 88.51 16.14C88.12 16.55 87.66 16.88 87.13 17.11C86.6 17.35 86.02 17.47 85.4 17.47C84.79 17.47 84.22 17.35 83.69 17.12C83.16 16.89 82.7 16.57 82.3 16.15C81.9 15.74 81.59 15.25 81.36 14.69C81.13 14.13 81.01 13.52 81.01 12.87C81.01 12.22 81.12 11.61 81.35 11.06C81.58 10.51 81.89 10.03 82.28 9.62C82.68 9.21 83.14 8.89 83.67 8.66C84.2 8.43 84.76 8.31 85.36 8.31C85.97 8.31 86.53 8.44 87.05 8.71C87.57 8.98 88.01 9.33 88.37 9.79V4.66H89.76V12.88H89.77ZM88.35 12.88C88.35 12.43 88.27 12.01 88.11 11.62C87.95 11.23 87.74 10.89 87.48 10.6C87.21 10.31 86.9 10.08 86.55 9.91C86.19 9.74 85.81 9.66 85.41 9.66C85.01 9.66 84.62 9.74 84.27 9.91C83.91 10.08 83.6 10.31 83.33 10.6C83.06 10.89 82.85 11.23 82.69 11.62C82.54 12.02 82.46 12.44 82.46 12.89C82.46 13.35 82.54 13.78 82.69 14.18C82.84 14.58 83.05 14.92 83.33 15.21C83.6 15.5 83.91 15.73 84.27 15.9C84.63 16.07 85.01 16.15 85.41 16.15C85.81 16.15 86.18 16.07 86.54 15.9C86.9 15.73 87.21 15.5 87.48 15.2C87.75 14.9 87.97 14.55 88.12 14.16C88.27 13.75 88.35 13.33 88.35 12.88Z" fill="white"/>
<path d="M40.37 23.81H42.33V24.28H40.37V24.88C40.37 25.12 40.43 25.31 40.56 25.44C40.69 25.57 40.87 25.64 41.11 25.64H42.59V26.13H41.11C40.73 26.13 40.42 26.02 40.2 25.8C39.97 25.58 39.86 25.27 39.86 24.88V23.21C39.86 22.81 39.97 22.5 40.2 22.28C40.43 22.06 40.73 21.95 41.11 21.95H42.59V22.44H41.11C40.87 22.44 40.69 22.51 40.56 22.64C40.43 22.77 40.37 22.96 40.37 23.21V23.81Z" fill="white"/>
<path d="M46.8 22.47C46.39 22.47 46.1 22.55 45.93 22.71C45.86 22.77 45.8 22.84 45.75 22.91C45.7 22.98 45.65 23.07 45.61 23.17C45.57 23.27 45.55 23.39 45.53 23.54C45.51 23.68 45.5 23.85 45.5 24.05C45.5 24.27 45.49 24.47 45.47 24.64C45.45 24.81 45.41 24.97 45.36 25.11C45.31 25.25 45.25 25.38 45.17 25.49C45.09 25.6 45 25.7 44.88 25.79C44.7 25.94 44.5 26.04 44.28 26.09C44.06 26.14 43.86 26.16 43.66 26.15V25.65C43.86 25.65 44.04 25.63 44.18 25.59C44.32 25.55 44.44 25.49 44.54 25.41C44.61 25.35 44.67 25.29 44.72 25.22C44.77 25.15 44.82 25.06 44.86 24.96C44.9 24.86 44.93 24.73 44.95 24.59C44.97 24.44 44.98 24.27 44.98 24.06C44.98 23.66 45.02 23.33 45.11 23.07C45.19 22.81 45.32 22.6 45.5 22.43C45.66 22.27 45.85 22.15 46.06 22.08C46.27 22.01 46.51 21.98 46.79 21.99V22.47H46.8Z" fill="white"/>
<path d="M50.92 23.22C50.92 23.43 50.89 23.62 50.82 23.79C50.75 23.96 50.66 24.1 50.53 24.22C50.41 24.34 50.25 24.43 50.08 24.5C49.9 24.56 49.7 24.6 49.48 24.6H48.5V26.15H48V23.34C48 23.13 48.04 22.93 48.11 22.75C48.18 22.57 48.28 22.41 48.41 22.28C48.54 22.15 48.7 22.05 48.87 21.97C49.05 21.9 49.24 21.86 49.46 21.86C49.66 21.86 49.85 21.9 50.03 21.97C50.21 22.04 50.36 22.14 50.49 22.26C50.62 22.38 50.73 22.53 50.8 22.69C50.88 22.85 50.92 23.03 50.92 23.22ZM50.41 23.22C50.41 23.1 50.39 22.99 50.34 22.88C50.29 22.78 50.23 22.68 50.14 22.61C50.06 22.53 49.96 22.47 49.84 22.42C49.72 22.37 49.6 22.35 49.46 22.35C49.32 22.35 49.2 22.37 49.08 22.42C48.96 22.47 48.86 22.53 48.78 22.62C48.7 22.71 48.63 22.81 48.58 22.93C48.53 23.05 48.51 23.19 48.51 23.34V24.09H49.48C49.79 24.09 50.02 24.01 50.17 23.85C50.33 23.69 50.41 23.48 50.41 23.22Z" fill="white"/>
<path d="M55.28 26.14H54.77V24.59H52.84V26.14H52.33V23.33C52.33 23.12 52.37 22.93 52.44 22.75C52.51 22.57 52.62 22.42 52.75 22.28C52.88 22.15 53.04 22.04 53.22 21.97C53.4 21.9 53.6 21.86 53.81 21.86C54.02 21.86 54.22 21.9 54.4 21.97C54.58 22.04 54.74 22.15 54.87 22.28C55 22.41 55.1 22.57 55.18 22.75C55.25 22.93 55.29 23.12 55.29 23.33V26.14H55.28ZM54.77 23.34C54.77 23.2 54.75 23.08 54.7 22.96C54.65 22.84 54.59 22.74 54.5 22.65C54.42 22.56 54.31 22.49 54.2 22.44C54.08 22.39 53.95 22.36 53.81 22.36C53.67 22.36 53.55 22.39 53.43 22.44C53.31 22.49 53.21 22.56 53.12 22.65C53.03 22.74 52.97 22.84 52.92 22.96C52.87 23.08 52.85 23.21 52.85 23.34V24.1H54.78V23.34H54.77Z" fill="white"/>
<path d="M60.68 24.82C60.61 25.03 60.51 25.22 60.38 25.4C60.26 25.57 60.11 25.72 59.95 25.84C59.79 25.96 59.6 26.05 59.4 26.12C59.2 26.19 58.99 26.22 58.76 26.22C58.47 26.22 58.21 26.16 57.95 26.05C57.7 25.94 57.48 25.78 57.29 25.58C57.1 25.38 56.95 25.15 56.84 24.89C56.73 24.62 56.68 24.34 56.68 24.04C56.68 23.74 56.73 23.46 56.84 23.19C56.95 22.93 57.1 22.7 57.29 22.5C57.48 22.3 57.7 22.15 57.95 22.03C58.2 21.92 58.47 21.86 58.76 21.86C59 21.86 59.22 21.89 59.42 21.96C59.62 22.03 59.81 22.12 59.97 22.25C60.13 22.37 60.27 22.52 60.39 22.69C60.51 22.86 60.6 23.05 60.67 23.25H60.13C60.01 22.99 59.84 22.77 59.61 22.6C59.38 22.43 59.09 22.35 58.75 22.35C58.53 22.35 58.33 22.39 58.14 22.48C57.95 22.57 57.79 22.69 57.64 22.84C57.5 22.99 57.38 23.17 57.3 23.38C57.22 23.58 57.18 23.8 57.18 24.03C57.18 24.26 57.22 24.47 57.3 24.68C57.38 24.88 57.49 25.06 57.64 25.22C57.78 25.37 57.95 25.5 58.14 25.58C58.33 25.67 58.53 25.71 58.75 25.71C59.06 25.71 59.33 25.63 59.58 25.47C59.82 25.31 60.01 25.09 60.13 24.81H60.68V24.82Z" fill="white"/>
<path d="M62.57 26.14H62.06V21.97H62.57V26.14Z" fill="white"/>
<path d="M66.12 21.86C66.41 21.86 66.68 21.92 66.93 22.03C67.18 22.14 67.4 22.29 67.59 22.49C67.78 22.68 67.92 22.91 68.03 23.18C68.14 23.44 68.19 23.73 68.19 24.04C68.19 24.35 68.14 24.63 68.03 24.9C67.92 25.17 67.77 25.4 67.59 25.59C67.4 25.79 67.18 25.94 66.93 26.05C66.68 26.16 66.41 26.22 66.12 26.22C65.83 26.22 65.57 26.16 65.31 26.05C65.06 25.94 64.84 25.78 64.65 25.59C64.46 25.39 64.32 25.16 64.21 24.9C64.1 24.64 64.05 24.35 64.05 24.04C64.05 23.73 64.1 23.45 64.21 23.19C64.32 22.93 64.47 22.7 64.65 22.5C64.84 22.3 65.06 22.15 65.31 22.04C65.56 21.92 65.83 21.86 66.12 21.86ZM66.12 25.72C66.34 25.72 66.54 25.68 66.73 25.59C66.92 25.5 67.08 25.38 67.23 25.23C67.37 25.08 67.48 24.9 67.57 24.69C67.65 24.49 67.69 24.27 67.69 24.03C67.69 23.79 67.65 23.57 67.57 23.36C67.49 23.16 67.38 22.98 67.24 22.83C67.1 22.68 66.93 22.56 66.74 22.48C66.55 22.39 66.35 22.35 66.12 22.35C65.9 22.35 65.7 22.39 65.51 22.48C65.32 22.57 65.16 22.69 65.01 22.84C64.87 22.99 64.76 23.17 64.67 23.38C64.59 23.58 64.55 23.8 64.55 24.04C64.55 24.28 64.59 24.5 64.67 24.7C64.75 24.91 64.86 25.08 65.01 25.24C65.15 25.39 65.32 25.51 65.51 25.59C65.7 25.68 65.9 25.72 66.12 25.72Z" fill="white"/>
<path d="M75.86 24.82C75.79 25.03 75.69 25.22 75.56 25.4C75.44 25.57 75.29 25.72 75.13 25.84C74.97 25.96 74.78 26.05 74.58 26.12C74.38 26.19 74.17 26.22 73.94 26.22C73.65 26.22 73.39 26.16 73.13 26.05C72.88 25.94 72.66 25.78 72.47 25.58C72.28 25.38 72.13 25.15 72.02 24.89C71.91 24.62 71.86 24.34 71.86 24.04C71.86 23.74 71.91 23.46 72.02 23.19C72.13 22.93 72.28 22.7 72.47 22.5C72.66 22.3 72.88 22.15 73.13 22.03C73.38 21.92 73.65 21.86 73.94 21.86C74.18 21.86 74.4 21.89 74.6 21.96C74.8 22.03 74.99 22.12 75.15 22.25C75.31 22.37 75.45 22.52 75.57 22.69C75.69 22.86 75.78 23.05 75.85 23.25H75.31C75.19 22.99 75.02 22.77 74.79 22.6C74.56 22.43 74.27 22.35 73.93 22.35C73.71 22.35 73.51 22.39 73.32 22.48C73.13 22.57 72.97 22.69 72.82 22.84C72.68 22.99 72.56 23.17 72.48 23.38C72.4 23.58 72.36 23.8 72.36 24.03C72.36 24.26 72.4 24.47 72.48 24.68C72.56 24.88 72.67 25.06 72.82 25.22C72.96 25.37 73.13 25.5 73.32 25.58C73.51 25.67 73.71 25.71 73.93 25.71C74.24 25.71 74.51 25.63 74.76 25.47C75 25.31 75.19 25.09 75.31 24.81H75.86V24.82Z" fill="white"/>
<path d="M79.04 21.86C79.33 21.86 79.6 21.92 79.85 22.03C80.1 22.14 80.32 22.29 80.51 22.49C80.7 22.68 80.84 22.91 80.95 23.18C81.06 23.44 81.11 23.73 81.11 24.04C81.11 24.35 81.06 24.63 80.95 24.9C80.84 25.17 80.69 25.4 80.51 25.59C80.32 25.79 80.1 25.94 79.85 26.05C79.6 26.16 79.33 26.22 79.04 26.22C78.75 26.22 78.49 26.16 78.23 26.05C77.98 25.94 77.76 25.78 77.57 25.59C77.38 25.39 77.24 25.16 77.13 24.9C77.02 24.64 76.97 24.35 76.97 24.04C76.97 23.73 77.02 23.45 77.13 23.19C77.24 22.93 77.39 22.7 77.57 22.5C77.76 22.3 77.98 22.15 78.23 22.04C78.48 21.92 78.75 21.86 79.04 21.86ZM79.04 25.72C79.26 25.72 79.46 25.68 79.65 25.59C79.84 25.5 80 25.38 80.15 25.23C80.29 25.08 80.4 24.9 80.49 24.69C80.57 24.49 80.61 24.27 80.61 24.03C80.61 23.79 80.57 23.57 80.49 23.36C80.41 23.15 80.3 22.98 80.16 22.83C80.02 22.68 79.85 22.56 79.66 22.48C79.47 22.39 79.27 22.35 79.04 22.35C78.82 22.35 78.62 22.39 78.43 22.48C78.24 22.57 78.08 22.69 77.93 22.84C77.79 22.99 77.68 23.17 77.59 23.38C77.51 23.58 77.47 23.8 77.47 24.04C77.47 24.28 77.51 24.5 77.59 24.7C77.67 24.91 77.78 25.08 77.93 25.24C78.07 25.39 78.24 25.51 78.43 25.59C78.62 25.68 78.82 25.72 79.04 25.72Z" fill="white"/>
<path d="M83.99 21.86C84.2 21.86 84.39 21.9 84.57 21.97C84.75 22.04 84.9 22.15 85.04 22.28C85.17 22.41 85.28 22.56 85.35 22.74C85.43 22.92 85.46 23.11 85.46 23.32V26.14H84.95V23.33C84.95 23.19 84.92 23.07 84.87 22.95C84.82 22.83 84.75 22.73 84.66 22.64C84.57 22.55 84.47 22.49 84.35 22.44C84.23 22.39 84.11 22.36 83.98 22.36C83.85 22.36 83.72 22.39 83.61 22.44C83.49 22.49 83.39 22.56 83.3 22.64C83.21 22.73 83.14 22.83 83.09 22.95C83.04 23.07 83.01 23.2 83.01 23.33V26.14H82.5V23.32C82.5 23.11 82.54 22.92 82.61 22.74C82.68 22.56 82.79 22.41 82.92 22.28C83.05 22.15 83.21 22.05 83.39 21.97C83.59 21.9 83.78 21.86 83.99 21.86Z" fill="white"/>
<path d="M87.53 23.81H89.49V24.28H87.53V24.88C87.53 25.12 87.59 25.31 87.72 25.44C87.85 25.57 88.03 25.64 88.27 25.64H89.75V26.13H88.27C87.89 26.13 87.58 26.02 87.36 25.8C87.13 25.58 87.02 25.27 87.02 24.88V23.21C87.02 22.81 87.13 22.5 87.36 22.28C87.59 22.06 87.89 21.95 88.27 21.95H89.75V22.44H88.27C88.03 22.44 87.85 22.51 87.72 22.64C87.59 22.77 87.53 22.96 87.53 23.21V23.81Z" fill="white"/>
<path d="M95.03 24.82C94.96 25.03 94.86 25.22 94.73 25.4C94.61 25.57 94.46 25.72 94.3 25.84C94.14 25.96 93.95 26.05 93.75 26.12C93.55 26.19 93.34 26.22 93.11 26.22C92.82 26.22 92.56 26.16 92.3 26.05C92.05 25.94 91.83 25.78 91.64 25.58C91.45 25.38 91.3 25.15 91.19 24.89C91.08 24.62 91.03 24.34 91.03 24.04C91.03 23.74 91.08 23.46 91.19 23.19C91.3 22.93 91.45 22.7 91.64 22.5C91.83 22.3 92.05 22.15 92.3 22.03C92.55 21.92 92.82 21.86 93.11 21.86C93.35 21.86 93.57 21.89 93.77 21.96C93.97 22.03 94.16 22.12 94.32 22.25C94.48 22.37 94.62 22.52 94.74 22.69C94.86 22.86 94.95 23.05 95.02 23.25H94.48C94.36 22.99 94.19 22.77 93.96 22.6C93.73 22.43 93.44 22.35 93.1 22.35C92.88 22.35 92.68 22.39 92.49 22.48C92.3 22.57 92.14 22.69 91.99 22.84C91.85 22.99 91.73 23.17 91.65 23.38C91.57 23.58 91.53 23.8 91.53 24.03C91.53 24.26 91.57 24.47 91.65 24.68C91.73 24.88 91.84 25.06 91.99 25.22C92.13 25.37 92.3 25.5 92.49 25.58C92.68 25.67 92.88 25.71 93.1 25.71C93.41 25.71 93.68 25.63 93.93 25.47C94.17 25.31 94.36 25.09 94.48 24.81H95.03V24.82Z" fill="white"/>
<path d="M97.82 22.45V26.14H97.31V22.45H96V21.96H99.14V22.45H97.82Z" fill="white"/>
<path d="M103.35 26.14H102.84V24.59H100.91V26.14H100.4V23.33C100.4 23.12 100.44 22.93 100.51 22.75C100.58 22.57 100.69 22.42 100.82 22.28C100.95 22.15 101.11 22.04 101.29 21.97C101.47 21.9 101.67 21.86 101.88 21.86C102.09 21.86 102.29 21.9 102.47 21.97C102.65 22.05 102.81 22.15 102.94 22.28C103.07 22.41 103.17 22.57 103.25 22.75C103.32 22.93 103.36 23.12 103.36 23.33V26.14H103.35ZM102.84 23.34C102.84 23.2 102.82 23.08 102.77 22.96C102.72 22.84 102.66 22.74 102.57 22.65C102.49 22.56 102.38 22.49 102.27 22.44C102.15 22.39 102.02 22.36 101.88 22.36C101.74 22.36 101.62 22.39 101.5 22.44C101.38 22.49 101.28 22.56 101.19 22.65C101.1 22.74 101.04 22.84 100.99 22.96C100.94 23.08 100.92 23.21 100.92 23.34V24.1H102.85V23.34H102.84Z" fill="white"/>
<path d="M16.38 32.64C25.327 32.64 32.58 25.387 32.58 16.44C32.58 7.49299 25.327 0.240005 16.38 0.240005C7.43298 0.240005 0.179993 7.49299 0.179993 16.44C0.179993 25.387 7.43298 32.64 16.38 32.64Z" fill="white"/>
<path d="M20.49 24.84C19.36 24.84 18.34 24.59 17.47 24.09C17.06 23.86 16.69 23.58 16.36 23.26C16.03 23.58 15.67 23.85 15.27 24.08C14.41 24.58 13.39 24.83 12.26 24.83C11.33 24.83 10.47 24.67 9.7 24.34C8.92 24.02 8.24 23.56 7.68 22.98C7.12 22.41 6.67 21.72 6.36 20.95C6.05 20.18 5.89 19.34 5.89 18.45V10.19C5.94 8.99 6.93 8.03 8.14 8.03C9.38 8.03 10.4 9.04 10.4 10.29V18.45C10.4 19.06 10.56 19.51 10.91 19.88C11.12 20.1 11.48 20.39 12.26 20.39C13.04 20.39 13.41 20.1 13.61 19.88C13.96 19.51 14.12 19.06 14.12 18.45V10.29C14.12 10.28 14.12 10.27 14.12 10.26V10.24C14.14 9.02 15.15 8.03 16.38 8.03C17.62 8.03 18.64 9.04 18.64 10.29V18.45C18.64 19.06 18.8 19.51 19.15 19.88C19.36 20.1 19.72 20.39 20.5 20.39C21.28 20.39 21.65 20.1 21.85 19.88C22.2 19.51 22.36 19.06 22.36 18.45V10.19C22.41 8.99 23.4 8.03 24.61 8.03C25.85 8.03 26.87 9.04 26.87 10.29V18.45C26.87 19.34 26.71 20.18 26.4 20.95C26.09 21.73 25.64 22.41 25.08 22.98C24.51 23.56 23.83 24.01 23.06 24.34C22.28 24.68 21.42 24.84 20.49 24.84Z" fill="url(#paint0_linear_2_379)"/>
<path d="M18.63 17.82C18.72 16.95 18.67 13.72 18.67 13.72C18.29 14.84 17.43 16.77 15.55 18.65C14.97 19.23 14.49 19.3 13.95 19.39C13.89 19.49 13.7 19.81 13.62 19.89C13.41 20.11 13.02 20.4 12.3 20.4C11.52 20.4 11.15 20.11 10.95 19.89C10.6 19.52 10.44 19.07 10.44 18.46L10.4 17.19C10.05 16.73 9.88001 16.88 9.88001 16.88C9.88001 16.88 9.54001 20.22 9.88001 21.61C10.32 23.43 12.56 25.45 15.05 24.23C15.14 24.19 15.22 24.14 15.31 24.09C15.38 24.05 15.44 24.01 15.51 23.97C17.44 22.7 18.36 20.36 18.63 17.82Z" fill="url(#paint1_linear_2_379)"/>
<path d="M26.88 18.47V10.3C26.88 9.05999 25.87 8.03999 24.62 8.03999C23.41 8.03999 22.42 8.99999 22.37 10.2V18.46C22.37 19.07 22.21 19.52 21.86 19.89C21.65 20.11 21.29 20.4 20.51 20.4C19.73 20.4 19.36 20.11 19.16 19.89C18.81 19.52 18.65 19.07 18.65 18.46V17.82C18.42 19.95 17.74 21.93 16.38 23.27C16.71 23.59 17.08 23.86 17.49 24.09C18.36 24.59 19.38 24.84 20.51 24.84C21.44 24.84 22.3 24.68 23.07 24.35C23.85 24.03 24.53 23.57 25.09 22.99C25.65 22.42 26.1 21.73 26.41 20.96C26.72 20.19 26.88 19.35 26.88 18.47Z" fill="url(#paint2_linear_2_379)"/>
<path d="M18.61 13.83V10.31C18.61 9.07 17.6 8.05 16.35 8.05C15.12 8.05 14.12 9.04 14.09 10.26V10.28C14.09 10.29 14.09 10.3 14.09 10.31V18.47C14.09 18.83 14.03 19.13 13.91 19.4C14.45 19.31 14.93 19.24 15.51 18.66C17.35 16.83 18.22 14.96 18.61 13.83Z" fill="url(#paint3_linear_2_379)"/>
<path d="M15.01 24.23C14.92 24.22 12.02 23.68 10.97 21.16C10.2 19.3 10.39 17.26 10.39 17.26V10.3C10.39 9.05999 9.38 8.03999 8.13 8.03999C6.92 8.03999 5.93 8.99999 5.88 10.2V18.46C5.88 19.35 6.04001 20.19 6.35001 20.96C6.66001 21.74 7.11001 22.42 7.67001 22.99C8.24001 23.57 8.92001 24.02 9.69001 24.35C10.46 24.67 11.33 24.84 12.25 24.84C13.28 24.84 14.21 24.63 15.01 24.23Z" fill="url(#paint4_linear_2_379)"/>
<defs>
<linearGradient id="paint0_linear_2_379" x1="5.8795" y1="16.4429" x2="26.8648" y2="16.4429" gradientUnits="userSpaceOnUse">
<stop stop-color="#0F9939"/>
<stop offset="0.1898" stop-color="#41A23C"/>
<stop offset="0.5733" stop-color="#84BA46"/>
<stop offset="0.7299" stop-color="#9DC64D"/>
</linearGradient>
<linearGradient id="paint1_linear_2_379" x1="18.3273" y1="17.4021" x2="9.33231" y2="22.2358" gradientUnits="userSpaceOnUse">
<stop stop-color="#4B328A"/>
<stop offset="0.8228" stop-color="#9165A8"/>
</linearGradient>
<linearGradient id="paint2_linear_2_379" x1="21.7808" y1="21.5569" x2="21.3281" y2="7.76349" gradientUnits="userSpaceOnUse">
<stop stop-color="#0F9939"/>
<stop offset="0.1898" stop-color="#41A23C"/>
<stop offset="0.5733" stop-color="#84BA46"/>
<stop offset="0.7299" stop-color="#9DC64D"/>
</linearGradient>
<linearGradient id="paint3_linear_2_379" x1="16.3181" y1="21.1186" x2="16.2041" y2="7.2515" gradientUnits="userSpaceOnUse">
<stop stop-color="#078D85"/>
<stop offset="0.142" stop-color="#189088"/>
<stop offset="0.2862" stop-color="#339891"/>
<stop offset="0.4313" stop-color="#52A5A0"/>
<stop offset="0.5763" stop-color="#77BAB6"/>
<stop offset="0.7021" stop-color="#9AD3D1"/>
</linearGradient>
<linearGradient id="paint4_linear_2_379" x1="10.4333" y1="21.5962" x2="10.4704" y2="9.57929" gradientUnits="userSpaceOnUse">
<stop offset="0.2186" stop-color="#E48205"/>
<stop offset="0.8801" stop-color="#F4E483"/>
</linearGradient>
</defs>
</svg>
