<svg width="52" height="51" viewBox="0 0 52 51" fill="none" xmlns="http://www.w3.org/2000/svg">
<path d="M25.88 49.45C39.0851 49.45 49.79 38.7451 49.79 25.54C49.79 12.3349 39.0851 1.63 25.88 1.63C12.6749 1.63 1.97 12.3349 1.97 25.54C1.97 38.7451 12.6749 49.45 25.88 49.45Z" fill="#AF4995" stroke="#B2B2B2" stroke-width="2.6842" stroke-miterlimit="10"/>
<path d="M30.93 37.28C29.54 37.28 28.29 36.97 27.22 36.36C26.72 36.07 26.26 35.74 25.86 35.34C25.46 35.73 25.01 36.07 24.52 36.35C23.46 36.96 22.21 37.27 20.82 37.27C19.68 37.27 18.62 37.07 17.67 36.67C16.72 36.27 15.88 35.71 15.18 35C14.49 34.29 13.94 33.45 13.56 32.5C13.18 31.55 12.99 30.52 12.99 29.43V19.27C13.06 17.8 14.27 16.62 15.76 16.62C17.29 16.62 18.53 17.86 18.53 19.39V29.42C18.53 30.16 18.73 30.72 19.15 31.18C19.4 31.45 19.85 31.81 20.81 31.81C21.77 31.81 22.22 31.45 22.47 31.18C22.9 30.73 23.1 30.17 23.1 29.42V19.39C23.1 19.38 23.1 19.37 23.1 19.36V19.34C23.13 17.84 24.36 16.62 25.87 16.62C27.4 16.62 28.64 17.86 28.64 19.39V29.42C28.64 30.16 28.84 30.72 29.26 31.18C29.51 31.45 29.96 31.81 30.92 31.81C31.88 31.81 32.33 31.45 32.58 31.18C33.01 30.73 33.2 30.17 33.2 29.42V19.26C33.27 17.79 34.48 16.61 35.97 16.61C37.5 16.61 38.74 17.85 38.74 19.38V29.41C38.74 30.5 38.55 31.53 38.17 32.48C37.79 33.43 37.24 34.27 36.55 34.98C35.85 35.69 35.02 36.25 34.07 36.65C33.13 37.07 32.07 37.28 30.93 37.28Z" fill="url(#paint0_linear_1_378)"/>
<path d="M28.64 28.65C28.76 27.58 28.68 23.61 28.68 23.61C28.22 24.99 27.16 27.36 24.84 29.67C24.12 30.39 23.53 30.47 22.87 30.58C22.79 30.7 22.56 31.09 22.46 31.2C22.21 31.47 21.72 31.83 20.84 31.83C19.88 31.83 19.43 31.47 19.18 31.2C18.75 30.75 18.56 30.19 18.56 29.44L18.52 27.87C18.09 27.3 17.88 27.49 17.88 27.49C17.88 27.49 17.47 31.6 17.88 33.3C18.42 35.53 21.17 38.02 24.23 36.52C24.34 36.47 24.44 36.41 24.55 36.35C24.63 36.3 24.71 36.25 24.79 36.2C27.19 34.64 28.31 31.77 28.64 28.65Z" fill="url(#paint1_linear_1_378)"/>
<path d="M38.78 29.44V19.41C38.78 17.88 37.54 16.64 36.01 16.64C34.52 16.64 33.3 17.82 33.24 19.29V29.45C33.24 30.19 33.04 30.75 32.62 31.21C32.37 31.48 31.92 31.84 30.96 31.84C30 31.84 29.55 31.48 29.3 31.21C28.87 30.76 28.68 30.2 28.68 29.45V28.66C28.4 31.28 27.56 33.71 25.89 35.35C26.3 35.74 26.75 36.08 27.25 36.36C28.32 36.97 29.57 37.28 30.96 37.28C32.1 37.28 33.16 37.08 34.11 36.68C35.06 36.28 35.9 35.72 36.6 35.01C37.29 34.3 37.84 33.46 38.22 32.51C38.58 31.56 38.78 30.53 38.78 29.44Z" fill="url(#paint2_linear_1_378)"/>
<path d="M28.62 23.75V19.42C28.62 17.89 27.38 16.65 25.85 16.65C24.34 16.65 23.11 17.86 23.08 19.37V19.39C23.08 19.4 23.08 19.41 23.08 19.42V29.45C23.08 29.89 23.01 30.26 22.86 30.59C23.52 30.48 24.11 30.4 24.83 29.68C27.08 27.43 28.14 25.14 28.62 23.75Z" fill="url(#paint3_linear_1_378)"/>
<path d="M24.2 36.52C24.09 36.51 20.52 35.84 19.24 32.75C18.29 30.47 18.53 27.96 18.53 27.96V19.41C18.53 17.88 17.29 16.64 15.76 16.64C14.27 16.64 13.05 17.82 12.99 19.29V29.45C12.99 30.54 13.18 31.57 13.56 32.52C13.94 33.47 14.49 34.31 15.18 35.02C15.88 35.73 16.71 36.29 17.67 36.69C18.62 37.09 19.68 37.29 20.82 37.29C22.07 37.28 23.21 37.02 24.2 36.52Z" fill="url(#paint4_linear_1_378)"/>
<defs>
<linearGradient id="paint0_linear_1_378" x1="12.9767" y1="26.9568" x2="38.7638" y2="26.9568" gradientUnits="userSpaceOnUse">
<stop stop-color="#0F9939"/>
<stop offset="0.1898" stop-color="#41A23C"/>
<stop offset="0.5733" stop-color="#84BA46"/>
<stop offset="0.7299" stop-color="#9DC64D"/>
</linearGradient>
<linearGradient id="paint1_linear_1_378" x1="28.2728" y1="28.1355" x2="17.2195" y2="34.0752" gradientUnits="userSpaceOnUse">
<stop stop-color="#4B328A"/>
<stop offset="0.8228" stop-color="#9165A8"/>
</linearGradient>
<linearGradient id="paint2_linear_1_378" x1="32.5165" y1="33.241" x2="31.9603" y2="16.2914" gradientUnits="userSpaceOnUse">
<stop stop-color="#0F9939"/>
<stop offset="0.1898" stop-color="#41A23C"/>
<stop offset="0.5733" stop-color="#84BA46"/>
<stop offset="0.7299" stop-color="#9DC64D"/>
</linearGradient>
<linearGradient id="paint3_linear_1_378" x1="25.8039" y1="32.7024" x2="25.6638" y2="15.6623" gradientUnits="userSpaceOnUse">
<stop stop-color="#078D85"/>
<stop offset="0.142" stop-color="#189088"/>
<stop offset="0.2862" stop-color="#339891"/>
<stop offset="0.4313" stop-color="#52A5A0"/>
<stop offset="0.5763" stop-color="#77BAB6"/>
<stop offset="0.7021" stop-color="#9AD3D1"/>
</linearGradient>
<linearGradient id="paint4_linear_1_378" x1="18.5725" y1="33.2893" x2="18.6181" y2="18.5227" gradientUnits="userSpaceOnUse">
<stop offset="0.2186" stop-color="#E48205"/>
<stop offset="0.8801" stop-color="#F4E483"/>
</linearGradient>
</defs>
</svg>
